<svg version="1.1" xmlns="http://www.w3.org/2000/svg" xmlns:xlink="http://www.w3.org/1999/xlink" width="100.1281" height="107.45657" viewBox="0,0,100.1281,107.45657"><g transform="translate(-215.1,-127.1)"><g data-paper-data="{&quot;isPaintingLayer&quot;:true}" fill-rule="nonzero" stroke-dasharray="" stroke-dashoffset="0" style="mix-blend-mode: normal"><path d="M269.075,127.68678c8.16094,0 17.13936,-2.23215 24.60625,2.01072c7.90543,4.49203 12.63627,12.88147 15.98525,21.00804c7.60625,18.45723 7.20929,41.8188 0.03981,60.32501c-3.03525,7.8351 -7.86395,15.99803 -15.2313,20.46764c-7.82527,4.74742 -16.7555,2.55112 -25.4,2.55112h-53.975v-106.36251zM311.14375,176.10554l0.79375,-0.79375zM311.40834,177.16384l0.26457,-0.52911z" fill="#eaeaea" stroke="none" stroke-width="1" stroke-linecap="butt" stroke-linejoin="miter" stroke-miterlimit="10"/><g stroke-miterlimit="4"><g fill="#a6a6a6" stroke="none" stroke-width="1.09841" stroke-linecap="butt" stroke-linejoin="miter"><g><path d="M219.83224,135.08178c0,-1.09594 0.88843,-1.98437 1.98438,-1.98437c1.09594,0 1.98438,0.88843 1.98438,1.98438c0,1.09594 -0.88843,1.98438 -1.98437,1.98438c-1.09594,0 -1.98437,-0.88843 -1.98437,-1.98437z"/><path d="M225.29866,135.08178c0,-1.09594 0.88843,-1.98437 1.98438,-1.98437c1.09594,0 1.98438,0.88843 1.98438,1.98438c0,1.09594 -0.88843,1.98438 -1.98437,1.98438c-1.09594,0 -1.98437,-0.88843 -1.98437,-1.98437z"/><path d="M225.29866,140.88488c0,-1.09594 0.88843,-1.98437 1.98438,-1.98437c1.09594,0 1.98438,0.88843 1.98438,1.98438c0,1.09594 -0.88843,1.98438 -1.98437,1.98438c-1.09594,0 -1.98437,-0.88843 -1.98437,-1.98437z"/><path d="M219.83224,140.88488c0,-1.09594 0.88843,-1.98437 1.98438,-1.98437c1.09594,0 1.98438,0.88843 1.98438,1.98438c0,1.09594 -0.88843,1.98438 -1.98437,1.98438c-1.09594,0 -1.98437,-0.88843 -1.98437,-1.98437z"/></g><g><path d="M269.24075,135.08178c0,-1.09594 0.88844,-1.98437 1.98438,-1.98437c1.09594,0 1.98438,0.88843 1.98438,1.98438c0,1.09594 -0.88844,1.98438 -1.98437,1.98438c-1.09594,0 -1.98437,-0.88843 -1.98437,-1.98437z"/><path d="M274.70718,135.08178c0,-1.09594 0.88844,-1.98437 1.98438,-1.98437c1.09594,0 1.98438,0.88843 1.98438,1.98438c0,1.09594 -0.88844,1.98438 -1.98437,1.98438c-1.09594,0 -1.98437,-0.88843 -1.98437,-1.98437z"/><path d="M274.70718,140.88488c0,-1.09594 0.88844,-1.98437 1.98438,-1.98437c1.09594,0 1.98438,0.88843 1.98438,1.98438c0,1.09594 -0.88844,1.98438 -1.98437,1.98438c-1.09594,0 -1.98437,-0.88843 -1.98437,-1.98437z"/><path d="M269.24075,140.88488c0,-1.09594 0.88844,-1.98437 1.98438,-1.98437c1.09594,0 1.98438,0.88843 1.98438,1.98438c0,1.09594 -0.88844,1.98438 -1.98437,1.98438c-1.09594,0 -1.98437,-0.88843 -1.98437,-1.98437z"/></g><g><path d="M219.83224,220.77169c0,-1.09594 0.88843,-1.98437 1.98438,-1.98437c1.09594,0 1.98438,0.88843 1.98438,1.98438c0,1.09594 -0.88843,1.98438 -1.98437,1.98438c-1.09594,0 -1.98437,-0.88843 -1.98437,-1.98437z"/><path d="M225.29866,220.77169c0,-1.09594 0.88843,-1.98437 1.98438,-1.98437c1.09594,0 1.98438,0.88843 1.98438,1.98438c0,1.09594 -0.88843,1.98438 -1.98437,1.98438c-1.09594,0 -1.98437,-0.88843 -1.98437,-1.98437z"/><path d="M225.29866,226.57479c0,-1.09594 0.88843,-1.98437 1.98438,-1.98437c1.09594,0 1.98438,0.88843 1.98438,1.98438c0,1.09594 -0.88843,1.98438 -1.98437,1.98438c-1.09594,0 -1.98437,-0.88843 -1.98437,-1.98437z"/><path d="M219.83224,226.57479c0,-1.09594 0.88843,-1.98437 1.98438,-1.98437c1.09594,0 1.98438,0.88843 1.98438,1.98438c0,1.09594 -0.88843,1.98438 -1.98437,1.98438c-1.09594,0 -1.98437,-0.88843 -1.98437,-1.98437z"/></g><g><path d="M269.24075,220.77169c0,-1.09594 0.88844,-1.98437 1.98438,-1.98437c1.09594,0 1.98438,0.88843 1.98438,1.98438c0,1.09594 -0.88844,1.98438 -1.98437,1.98438c-1.09594,0 -1.98437,-0.88843 -1.98437,-1.98437z"/><path d="M274.70718,220.77169c0,-1.09594 0.88844,-1.98437 1.98438,-1.98437c1.09594,0 1.98438,0.88843 1.98438,1.98438c0,1.09594 -0.88844,1.98438 -1.98437,1.98438c-1.09594,0 -1.98437,-0.88843 -1.98437,-1.98437z"/><path d="M274.70718,226.57479c0,-1.09594 0.88844,-1.98437 1.98438,-1.98437c1.09594,0 1.98438,0.88843 1.98438,1.98438c0,1.09594 -0.88844,1.98438 -1.98437,1.98438c-1.09594,0 -1.98437,-0.88843 -1.98437,-1.98437z"/><path d="M269.24075,226.57479c0,-1.09594 0.88844,-1.98437 1.98438,-1.98437c1.09594,0 1.98438,0.88843 1.98438,1.98438c0,1.09594 -0.88844,1.98438 -1.98437,1.98438c-1.09594,0 -1.98437,-0.88843 -1.98437,-1.98437z"/></g></g><path d="M233.49621,180.82829c0,-3.21735 2.60818,-5.82554 5.82554,-5.82554c3.21735,0 5.82554,2.60818 5.82554,5.82554c0,3.21735 -2.60819,5.82554 -5.82554,5.82554c-3.21735,0 -5.82554,-2.60819 -5.82554,-5.82554z" fill="#a6a6a6" stroke="none" stroke-width="3.22461" stroke-linecap="butt" stroke-linejoin="miter"/><g><g fill="#bb9191" stroke-linecap="butt"><path d="M283.23292,180.82828c0,-2.44241 1.97997,-4.42238 4.42238,-4.42238c2.44241,0 4.42237,1.97997 4.42237,4.42238c0,2.44241 -1.97996,4.42237 -4.42237,4.42237c-2.44241,0 -4.42238,-1.97996 -4.42238,-4.42237z" stroke="none" stroke-width="2.44792" stroke-linejoin="miter"/><path d="M292.67067,171.23167l-10.03073,-0.01863l5.03152,-8.67755z" stroke="#bb9191" stroke-width="2" stroke-linejoin="round"/><path d="M282.63993,190.4249l10.03073,0.01864l-5.03152,8.67754z" stroke="#bb9191" stroke-width="2" stroke-linejoin="round"/><path d="M296.71159,185.84366l0.01864,-10.03074l8.67754,5.03152z" stroke="#bb9191" stroke-width="2" stroke-linejoin="round"/><path d="M278.06407,175.81291l-0.01864,10.03074l-8.67754,-5.03152z" stroke="#bb9191" stroke-width="2" stroke-linejoin="round"/></g><g fill="none" stroke="#ffff00" stroke-width="2.1" stroke-linecap="round" stroke-linejoin="round"><g><g><path d="M279.8472,160.17324l3.57188,-0.99219l3.175,-0.39688l3.96875,0.29766l1.98438,0.29765l2.38125,0.69453"/><path d="M294.92846,202.04355l-2.38125,0.69453l-1.98437,0.29766l-3.96875,0.29765l-3.175,-0.39687l-3.57188,-0.99219"/></g><g><path d="M308.27338,173.28766l0.99219,3.57188l0.39688,3.175l-0.29766,3.96875l-0.29766,1.98438l-0.69453,2.38125"/><path d="M266.40306,188.36891l-0.69453,-2.38125l-0.29766,-1.98437l-0.29765,-3.96875l0.39687,-3.175l0.99219,-3.57188"/></g></g><g><g><path d="M296.74262,161.0037l3.22728,1.82411l2.52569,1.96443l2.59586,3.01681l1.19269,1.61364l1.19269,2.1749"/><path d="M277.79989,201.27453l-2.17491,-1.19269l-1.61364,-1.19269l-3.01681,-2.59586l-1.96443,-2.5257l-1.82412,-3.22728"/></g><g><path d="M307.56967,190.37733l-1.82412,3.22728l-1.96443,2.5257l-3.0168,2.59586l-1.61364,1.19269l-2.17491,1.19269"/><path d="M267.29883,171.4346l1.19269,-2.17491l1.19269,-1.61364l2.59585,-3.01681l2.5257,-1.96443l3.22728,-1.82412"/></g></g></g></g></g></g></g></svg>